<svg width="344" height="118" viewBox="0 0 344 118" fill="none" xmlns="http://www.w3.org/2000/svg">
<path d="M44.0625 40.25V20.25C44.0625 14.7917 43.9792 11.3542 43.8125 9.9375C43.6875 8.52083 43.1042 7.4375 42.0625 6.6875C41.0208 5.9375 39.1667 5.5625 36.5 5.5625H35.1875V2.6875C40.2292 2.5625 45.75 1.6875 51.75 0.0625H53.0625V68.875C53.0625 74.8333 53.1667 78.4583 53.375 79.75C53.5833 81.0417 54.2292 82 55.3125 82.625C56.4375 83.25 58.5 83.5625 61.5 83.5625V86.4375C55.4583 86.5625 50.0833 87.1042 45.375 88.0625C44.875 86.1042 44.625 83.0208 44.625 78.8125C41.5417 81.8958 38.3542 84.2083 35.0625 85.75C31.8125 87.2917 28.4375 88.0625 24.9375 88.0625C18.3125 88.0625 12.5833 85.3958 7.75 80.0625C2.95833 74.7292 0.5625 68.2708 0.5625 60.6875C0.5625 52.3542 3.02083 45.625 7.9375 40.5C12.8542 35.3333 18.7083 32.75 25.5 32.75C28.9583 32.75 32.2292 33.375 35.3125 34.625C38.3958 35.875 41.3125 37.75 44.0625 40.25ZM44.0625 43.875C41.3125 41.5 38.5417 39.7292 35.75 38.5625C33 37.3542 30.2292 36.75 27.4375 36.75C22.7292 36.75 18.7917 38.5625 15.625 42.1875C12.5 45.8125 10.9375 51.7292 10.9375 59.9375C10.9375 68.2708 12.5417 74.4167 15.75 78.375C19 82.3333 23 84.3125 27.75 84.3125C30.9167 84.3125 33.8542 83.5625 36.5625 82.0625C39.2708 80.5625 41.7708 78.3125 44.0625 75.3125V43.875ZM113.875 52.125H78.1875C78.0208 54.5833 77.9375 56.4167 77.9375 57.625C77.9375 66.625 79.3333 73.3958 82.125 77.9375C84.9583 82.4375 89.1667 84.6875 94.75 84.6875C102.333 84.6875 107.708 81.2917 110.875 74.5H113.875C112.542 78.75 109.896 82.0833 105.938 84.5C101.979 86.875 97.6667 88.0625 93 88.0625C88.6667 88.0625 84.5625 86.9792 80.6875 84.8125C76.8542 82.6042 73.7083 79.5 71.25 75.5C68.7917 71.5 67.5625 66.6458 67.5625 60.9375C67.5625 52.8542 69.9375 46.1458 74.6875 40.8125C79.4375 35.4375 85.375 32.75 92.5 32.75C99.2083 32.75 104.396 34.7917 108.062 38.875C111.729 42.9583 113.667 47.375 113.875 52.125ZM102.938 49.625C103.062 48.6667 103.125 47.8125 103.125 47.0625C103.125 43.3958 102.042 40.5625 99.875 38.5625C97.75 36.5208 95.125 35.5 92 35.5C84.4167 35.5 79.8958 40.2083 78.4375 49.625H102.938Z" fill="#448ADC"/>
<path d="M123.938 87.625V70.8125H126.375C129.208 80.5208 134.271 85.375 141.562 85.375C144.729 85.375 147.083 84.4167 148.625 82.5C150.208 80.5833 151 78.4792 151 76.1875C151 73.5208 150.167 71.3333 148.5 69.625C146.792 67.9167 143.479 65.8542 138.562 63.4375C133.396 60.8958 129.688 58.3958 127.438 55.9375C125.188 53.5208 124.062 50.5417 124.062 47C124.062 43.625 125.271 40.4167 127.688 37.375C130.104 34.2917 133.5 32.75 137.875 32.75C142.333 32.75 146.021 34.5625 148.938 38.1875C149.562 37.5625 150.375 36.0417 151.375 33.625H153.688V49.4375H151.375C150.542 45.6458 148.917 42.3958 146.5 39.6875C144.125 36.9375 141.312 35.5625 138.062 35.5625C135.562 35.5625 133.542 36.3333 132 37.875C130.458 39.4167 129.688 41.2083 129.688 43.25C129.688 45.5 130.542 47.4375 132.25 49.0625C133.917 50.7292 137.104 52.625 141.812 54.75C148.896 57.9583 153.229 61.0833 154.812 64.125C156.396 67.2083 157.188 70.1667 157.188 73C157.188 77.4583 155.708 81.0833 152.75 83.875C149.833 86.6667 146.146 88.0625 141.688 88.0625C136.979 88.0625 132.792 86.125 129.125 82.25C128 83.5 127.083 85.2917 126.375 87.625H123.938ZM177.312 32.75H179C179.708 35.0833 180.062 37.8958 180.062 41.1875C182.729 38.3542 185.583 36.25 188.625 34.875C191.708 33.4583 194.958 32.75 198.375 32.75C205.458 32.75 211.354 35.25 216.062 40.25C220.771 45.2083 223.125 51.7708 223.125 59.9375C223.125 67.9375 220.75 74.625 216 80C211.292 85.375 205.083 88.0625 197.375 88.0625C194.208 88.0625 191.167 87.4167 188.25 86.125C185.375 84.875 182.646 83 180.062 80.5V99.9375C180.062 105.854 180.167 109.458 180.375 110.75C180.625 112.042 181.292 113 182.375 113.625C183.458 114.292 185.479 114.625 188.438 114.625V117.5H161.688V114.625H163.562C166.521 114.625 168.438 114.188 169.312 113.312C170.229 112.479 170.75 111.458 170.875 110.25C171.042 109.083 171.125 105.646 171.125 99.9375V53.4375C171.125 47.9792 171.042 44.5417 170.875 43.125C170.75 41.7083 170.167 40.625 169.125 39.875C168.083 39.125 166.229 38.75 163.562 38.75H161.688V35.875C165.812 35.4583 171.021 34.4167 177.312 32.75ZM180.062 76.375C182.312 79.125 184.688 81.2083 187.188 82.625C189.729 84 192.396 84.6875 195.188 84.6875C199.896 84.6875 204 82.6667 207.5 78.625C211 74.5833 212.75 68.1458 212.75 59.3125C212.75 51.6458 211.062 45.9167 207.688 42.125C204.312 38.3333 200.292 36.4375 195.625 36.4375C192.75 36.4375 190.021 37.1667 187.438 38.625C184.854 40.0833 182.396 42.2917 180.062 45.25V76.375ZM279.375 52.125H243.688C243.521 54.5833 243.438 56.4167 243.438 57.625C243.438 66.625 244.833 73.3958 247.625 77.9375C250.458 82.4375 254.667 84.6875 260.25 84.6875C267.833 84.6875 273.208 81.2917 276.375 74.5H279.375C278.042 78.75 275.396 82.0833 271.438 84.5C267.479 86.875 263.167 88.0625 258.5 88.0625C254.167 88.0625 250.062 86.9792 246.188 84.8125C242.354 82.6042 239.208 79.5 236.75 75.5C234.292 71.5 233.062 66.6458 233.062 60.9375C233.062 52.8542 235.438 46.1458 240.188 40.8125C244.938 35.4375 250.875 32.75 258 32.75C264.708 32.75 269.896 34.7917 273.562 38.875C277.229 42.9583 279.167 47.375 279.375 52.125ZM268.438 49.625C268.562 48.6667 268.625 47.8125 268.625 47.0625C268.625 43.3958 267.542 40.5625 265.375 38.5625C263.25 36.5208 260.625 35.5 257.5 35.5C249.917 35.5 245.396 40.2083 243.938 49.625H268.438ZM303.875 0.0625V68.4375C303.875 73.8958 303.938 77.3333 304.062 78.75C304.229 80.1667 304.833 81.25 305.875 82C306.917 82.75 308.771 83.125 311.438 83.125H312.938V86H285.562V83.125H287.312C289.812 83.125 291.583 82.7917 292.625 82.125C293.708 81.4167 294.354 80.4375 294.562 79.1875C294.771 77.9375 294.875 74.3542 294.875 68.4375V17.8125C294.875 12.4375 294.396 9.0625 293.438 7.6875C292.479 6.27083 290.146 5.5625 286.438 5.5625V2.6875C288.979 2.6875 291.958 2.39583 295.375 1.8125C298.833 1.22917 301.208 0.645833 302.5 0.0625H303.875ZM334.625 0.0625V68.4375C334.625 73.8958 334.688 77.3333 334.812 78.75C334.979 80.1667 335.583 81.25 336.625 82C337.667 82.75 339.521 83.125 342.188 83.125H343.688V86H316.312V83.125H318.062C320.562 83.125 322.333 82.7917 323.375 82.125C324.458 81.4167 325.104 80.4375 325.312 79.1875C325.521 77.9375 325.625 74.3542 325.625 68.4375V17.8125C325.625 12.4375 325.146 9.0625 324.188 7.6875C323.229 6.27083 320.896 5.5625 317.188 5.5625V2.6875C319.729 2.6875 322.708 2.39583 326.125 1.8125C329.583 1.22917 331.958 0.645833 333.25 0.0625H334.625Z" fill="#F74F9E"/>
</svg>
